<svg xmlns="http://www.w3.org/2000/svg" viewBox="0 0 222.5 219.5"><defs><style>.cls-1{fill:#f38eba;}.cls-1,.cls-2,.cls-3,.cls-4{stroke:#231f20;stroke-miterlimit:10;}.cls-2{fill:#f3b1d0;}.cls-3{fill:#231f20;}.cls-4{fill:none;}</style></defs><g id="Layer_2" data-name="Layer 2"><g id="Layer_1-2" data-name="Layer 1"><path class="cls-1" d="M169.21,69.36l-.5,115a12,12,0,0,1-12,12h-103a12,12,0,0,1-12-12l-.5-115"/><path class="cls-1" d="M41.21,69.36c0-24.86,28.65-45,64-45s64,20.14,64,45"/><path class="cls-2" d="M52.21,163.18A29.1,29.1,0,0,1,80.3,182.31c5.63,14.7.07,30.5-12.43,35.3S40.65,214.38,35,199.69C30.13,187,32.35,171,42.8,166.89c2.17-.86,9.65,14.65,9.65,14.65S48.18,163.32,52.21,163.18Z"/><path class="cls-1" d="M51.12,47C56.55,29.5,44.89,2.6,44.89,2.6S77.67,3.22,82,26.93"/><path class="cls-1" d="M160.62,47c.13-24.2,8.59-46.41,8.59-46.41S133.5,3.83,127.07,27.05"/><path class="cls-2" d="M.7,52.13c2.22,8,3.4,21,12.47,32.81,12.42,16.22,28.6,24.68,36.16,18.9S52.94,80.22,40.52,64c-9.65-12.61-21.58-20.53-30-20.72,0,0-1.07,9.06,4.71,12.75C20.52,59.39-1.84,42.9.7,52.13Z"/><circle class="cls-2" cx="110.01" cy="81.54" r="21.88"/><ellipse class="cls-3" cx="104.61" cy="83.38" rx="2.4" ry="11.29"/><ellipse class="cls-3" cx="115.71" cy="82.81" rx="2.4" ry="11.29"/><path class="cls-2" d="M175.57,174.05a29.08,29.08,0,0,1-4.21,33.71c-10.5,11.73-27.1,14-37.08,5.05s-9.54-25.69,1-37.41c9.09-10.15,24.3-15.46,32.74-8,1.75,1.54-8.64,15.28-8.64,15.28S173.6,170.52,175.57,174.05Z"/><path class="cls-2" d="M212.22,45.21c-7.78,3-20.54,5.38-31.47,15.54-15,13.91-21.85,30.83-15.37,37.8S189.23,99.89,204.2,86c11.63-10.81,18.38-23.44,17.76-31.8,0,0-9.12-.2-12.24,5.9C206.88,65.64,221.16,41.8,212.22,45.21Z"/><path class="cls-4" d="M76.22,57.11c2.15-.69,4-17.27,25-12.72"/><path class="cls-4" d="M134.73,53.77c-2.23-.38-6.34-16.55-26.52-9.11"/><path class="cls-4" d="M76.05,91.72c5.29,38.81,69,32,70,.34"/><path class="cls-4" d="M94.3,115.91c4.1,19.7,38.49,13.39,38-2.93"/></g></g></svg>