<svg xmlns="http://www.w3.org/2000/svg" viewBox="0 0 204.8 218.45"><defs><style>.cls-1{fill:#f38eba;}.cls-1,.cls-2,.cls-3,.cls-4,.cls-5{stroke:#231f20;stroke-miterlimit:10;}.cls-2{fill:#f3b1d0;}.cls-3,.cls-6{fill:#231f20;}.cls-4{fill:none;}.cls-5{fill:#fff;}</style></defs><g id="Layer_2" data-name="Layer 2"><g id="Layer_1-2" data-name="Layer 1"><path class="cls-1" d="M169,62.92l-.5,115a12,12,0,0,1-12,12h-103a12,12,0,0,1-12-12l-.5-115"/><path class="cls-1" d="M41,62.92c0-24.85,28.66-45,64-45s64,20.15,64,45"/><path class="cls-2" d="M81.58,168.75a29.1,29.1,0,0,1,2.73,33.87c-7.9,13.62-23.7,19.2-35.28,12.48s-14.57-23.21-6.67-36.82C49.2,166.49,63,158.2,72.78,163.75c2,1.15-5.35,16.71-5.35,16.71S78.93,165.71,81.58,168.75Z"/><path class="cls-1" d="M49.33,40.74C54.76,23.3,37.82.71,37.82.71S75.88-3,80.18,20.72"/><path class="cls-1" d="M160.43,40.55C156.6,22.68,175.51,1.72,175.51,1.72s-42.2-4.32-48.63,18.9"/><path class="cls-2" d="M12.17,145.18c7.14-4.29,19.28-8.9,28.25-20.83C52.71,108,56.51,90.17,48.91,84.44s-23.72,2.87-36,19.19c-9.55,12.69-14,26.31-11.9,34.44,0,0,9-1.41,11-8C13.84,124.14,4,150.11,12.17,145.18Z"/><circle class="cls-2" cx="109.82" cy="75.11" r="21.88"/><ellipse class="cls-3" cx="104.42" cy="76.94" rx="2.4" ry="11.29"/><ellipse class="cls-3" cx="115.52" cy="76.37" rx="2.4" ry="11.29"/><path class="cls-2" d="M136.2,163.8a29.09,29.09,0,0,1,31.09,13.72c8.21,13.42,5.61,30-5.82,37s-27.34,1.77-35.56-11.66c-7.11-11.63-7.83-27.72,1.7-33.67,2-1.23,12.16,12.66,12.16,12.66S132.26,164.67,136.2,163.8Z"/><path class="cls-2" d="M204.25,147.19c-1-8.26-.29-21.23-7.53-34.28-9.91-17.86-24.69-28.6-33-24s-7,22.84,2.87,40.7c7.7,13.89,18.35,23.47,26.61,24.88,0,0,2.38-8.8-2.79-13.3C185.7,137.11,205.41,156.7,204.25,147.19Z"/><path class="cls-4" d="M76.59,112.48C75,109.39,128.86,100,134.53,101.73"/><path class="cls-5" d="M76,45.7c2.26,0,9-15.24,27.67-4.51"/><ellipse class="cls-6" cx="89.79" cy="42.71" rx="2.05" ry="2.57" transform="translate(31.23 123.07) rotate(-79.35)"/><path class="cls-5" d="M137.64,42.71c-2.25.22-10.51-14.27-28-1.74"/><ellipse class="cls-6" cx="121.79" cy="41.53" rx="2.05" ry="2.57" transform="translate(58.47 153.56) rotate(-79.35)"/></g></g></svg>